<svg xmlns="http://www.w3.org/2000/svg" xmlns:xlink="http://www.w3.org/1999/xlink" width="167" height="177" version="1.1" viewBox="0 0 167 177"><title>angular</title><desc>Created with Sketch.</desc><g id="Page-1" fill="none" fill-rule="evenodd" stroke="none" stroke-width="1"><g id="angular"><path id="Shape" fill="#B3B3B3" d="M83.243,0.875 L0.554,29.975 L13.621,138.311 L83.331,176.625 L153.4,137.792 L166.462,29.46 L83.243,0.875 Z"/><path id="Shape" fill="#A6120D" d="M158.214,35.721 L83.05,10.089 L83.05,167.471 L146.041,132.609 L158.214,35.721 Z"/><path id="Shape" fill="#DD1B16" d="M9.833,36.183 L21.03,133.072 L83.049,167.471 L83.049,10.086 L9.833,36.183 Z"/><path id="Shape" fill="#F2F2F2" d="M103.74,93.871 L83.05,103.546 L61.243,103.546 L50.992,129.186 L31.925,129.539 L83.05,15.804 L103.74,93.871 L103.74,93.871 Z M101.74,89 L83.187,52.271 L67.969,88.368 L83.049,88.368 L101.74,89 L101.74,89 Z"/><path id="Shape" fill="#B3B3B3" d="M83.049,15.804 L83.186,52.271 L100.454,88.396 L83.088,88.396 L83.049,103.523 L107.062,103.546 L118.285,129.543 L136.529,129.881 L83.049,15.804 Z"/></g></g></svg>