<svg xmlns="http://www.w3.org/2000/svg" xmlns:xlink="http://www.w3.org/1999/xlink" id="Layer_1" x="0" y="0" enable-background="new -63 303.2 228.4 186.8" version="1.1" viewBox="-63 303.2 228.4 186.8" xml:space="preserve"><g><polygon fill="#F90" points="-.8 482.6 -29.2 472.4 -29.2 430.7 -.8 440.4"/><polygon fill="#F90" points="4.4 482.6 32.8 472.4 32.8 430.7 4.4 440.4"/><polygon fill="#F90" points="-26.3 427.6 2.5 419.5 29.1 428.1 2.5 437.2"/></g><g><polygon fill="#F90" points="-34.6 424.4 -63 414.2 -63 372.6 -34.6 382.2"/><polygon fill="#F90" points="-29.4 424.4 -1 414.2 -1 372.6 -29.4 382.2"/><polygon fill="#F90" points="-60.1 369.5 -31.3 361.4 -4.7 370 -31.3 379"/></g><g><polygon fill="#F90" points="31.7 424.4 3.3 414.2 3.3 372.6 31.7 382.2"/><polygon fill="#F90" points="36.9 424.4 65.3 414.2 65.3 372.6 36.9 382.2"/><polygon fill="#F90" points="6.2 369.5 34.9 361.4 61.6 370 34.9 379"/></g><g><polygon fill="#F90" points="65.5 366.2 37.1 356 37.1 314.4 65.5 324.1"/><polygon fill="#F90" points="70.7 366.2 99.1 356 99.1 314.4 70.7 324.1"/><polygon fill="#F90" points="40 311.3 68.8 303.2 95.4 311.8 68.8 320.8"/></g><g><polygon fill="#F90" points="131.8 366.2 103.4 356 103.4 314.4 131.8 324.1"/><polygon fill="#F90" points="137 366.2 165.4 356 165.4 314.4 137 324.1"/><polygon fill="#F90" points="106.3 311.3 135 303.2 161.7 311.8 135 320.8"/></g></svg>