<svg xmlns="http://www.w3.org/2000/svg" xmlns:svg="http://www.w3.org/2000/svg" xmlns:xlink="http://www.w3.org/1999/xlink" id="svg2" width="115.119" height="24.187" version="1.1"><metadata id="metadata7"/><g id="layer2" display="none" transform="translate(-11.56225,-11.12422)"><g id="g3910"><path id="path3872" fill="none" stroke="#000" stroke-linecap="butt" stroke-linejoin="miter" stroke-opacity="1" stroke-width="1" d="m 3.7946429,10.710395 156.7857171,0"/><path id="path3872-6" fill="none" stroke="#000" stroke-linecap="butt" stroke-linejoin="miter" stroke-opacity="1" stroke-width="1" d="m 3.6552959,35.734302 156.7857141,0"/><path id="path3872-6-8" fill="none" stroke="#000" stroke-linecap="butt" stroke-linejoin="miter" stroke-opacity="1" stroke-width="1" d="m -10.35714,23.222461 156.78571,0"/></g></g><g id="layer1" transform="translate(-11.56225,-11.12422)"><path id="path2996" fill="none" stroke="#090" stroke-dasharray="none" stroke-linecap="round" stroke-linejoin="round" stroke-miterlimit="4" stroke-opacity="1" stroke-width="5" d="m 14.047838,32.727592 0,-19.064695 19.062499,19.064695 0,-19.064695"/><path id="path2996-0" fill="#090" fill-opacity="1" stroke="none" stroke-width="5" d="M 44.6875,11.1875 44,12.46875 38.6875,22.125 38,23.34375 38.6875,24.5625 44,33.90625 l 0.71875,1.28125 1.46875,0 10.875,0 1.5625,0 0.6875,-1.40625 3.96875,-8 1.78125,-3.625 -4.03125,0 L 50.875,22.1875 c -1.320782,-0.01868 -2.535605,1.179086 -2.535605,2.5 0,1.320914 1.214823,2.518679 2.535605,2.5 L 57,27.15625 l -1.5,3.03125 -7.875,0 -3.90625,-6.875 3.9375,-7.125 8.377221,0 1.953125,4.007812 5.03125,0 -3.171875,-7.601562 -0.6875,-1.40625 -1.5625,0 -11.408471,0 z" baseline-shift="baseline" color="#000" direction="ltr" display="inline" enable-background="accumulate" font-family="Sans" font-size="medium" font-stretch="normal" font-style="normal" font-variant="normal" font-weight="normal" letter-spacing="normal" overflow="visible" text-anchor="start" text-decoration="none" visibility="visible" word-spacing="normal" writing-mode="lr-tb" style="text-indent:0;text-align:start;line-height:normal;text-transform:none;block-progression:tb;marker:none;-inkscape-font-specification:Sans"/><path id="path2996-0-5" fill="#090" fill-opacity="1" stroke="none" stroke-width="5" d="m 70.013782,11.15625 c -1.308989,0.01639 -2.485084,1.222261 -2.46875,2.53125 l 0,6.514509 5,0 0,-6.514509 c 0.01659,-1.329821 -1.201429,-2.547843 -2.53125,-2.53125 z" baseline-shift="baseline" color="#000" direction="ltr" display="inline" enable-background="accumulate" font-family="Sans" font-size="medium" font-stretch="normal" font-style="normal" font-variant="normal" font-weight="normal" letter-spacing="normal" overflow="visible" text-anchor="start" text-decoration="none" visibility="visible" word-spacing="normal" writing-mode="lr-tb" style="text-indent:0;text-align:start;line-height:normal;text-transform:none;block-progression:tb;marker:none;-inkscape-font-specification:Sans"/><use id="use3820" width="744.094" height="1052.362" x="0" y="0" transform="matrix(-1,0,0,1,111.13905,0.04841623)" xlink:href="#path2996"/><g id="g3920" transform="translate(0.10586251,0.33010228)"><path id="path2996-1" fill="none" stroke="#090" stroke-dasharray="none" stroke-linecap="round" stroke-linejoin="round" stroke-miterlimit="4" stroke-opacity="1" stroke-width="5" d="m 104.90935,13.374209 19.08481,19.017856"/><use id="use3851" width="744.094" height="1052.362" x="0" y="0" transform="matrix(-1,0,0,1,228.92583,0)" xlink:href="#path2996-1"/></g><path id="path2996-0-5-1" fill="#090" fill-opacity="1" stroke="none" stroke-width="5" d="m 70.013782,35.204069 c -1.308989,-0.01639 -2.485084,-1.222261 -2.46875,-2.53125 l 0,-10.464363 5,0 0,10.464363 c 0.01659,1.329821 -1.201429,2.547843 -2.53125,2.53125 z" baseline-shift="baseline" color="#000" direction="ltr" display="inline" enable-background="accumulate" font-family="Sans" font-size="medium" font-stretch="normal" font-style="normal" font-variant="normal" font-weight="normal" letter-spacing="normal" overflow="visible" text-anchor="start" text-decoration="none" visibility="visible" word-spacing="normal" writing-mode="lr-tb" style="text-indent:0;text-align:start;line-height:normal;text-transform:none;block-progression:tb;marker:none;-inkscape-font-specification:Sans"/></g></svg>